<?xml version="1.0" encoding="UTF-8" standalone="no"?>
<!-- Generator: Adobe Illustrator 12.0.1, SVG Export Plug-In . SVG Version: 6.00 Build 51448)  -->
<svg xmlns:dc="http://purl.org/dc/elements/1.1/" xmlns:cc="http://creativecommons.org/ns#" xmlns:rdf="http://www.w3.org/1999/02/22-rdf-syntax-ns#" xmlns:svg="http://www.w3.org/2000/svg" xmlns="http://www.w3.org/2000/svg" xmlns:sodipodi="http://sodipodi.sourceforge.net/DTD/sodipodi-0.dtd" xmlns:inkscape="http://www.inkscape.org/namespaces/inkscape" version="1.1" id="Layer_1" width="42" height="42" viewBox="0 0 42 42" xml:space="preserve" inkscape:version="0.48.0 r9654" sodipodi:docname="pink.svg"><defs id="defs27"><inkscape:perspective sodipodi:type="inkscape:persp3d" inkscape:vp_x="0 : 21 : 1" inkscape:vp_y="0 : 1000 : 0" inkscape:vp_z="42 : 21 : 1" inkscape:persp3d-origin="21 : 14 : 1" id="perspective31"/></defs><sodipodi:namedview pagecolor="#ffffff" bordercolor="#666666" borderopacity="1" objecttolerance="10" gridtolerance="10" guidetolerance="10" inkscape:pageopacity="0" inkscape:pageshadow="2" inkscape:window-width="1360" inkscape:window-height="718" id="namedview25" showgrid="false" inkscape:zoom="1" inkscape:cx="21" inkscape:cy="189.5" inkscape:window-x="-8" inkscape:window-y="-8" inkscape:window-maximized="1" inkscape:current-layer="Layer_1"/>
<g id="g3" style="fill:#000000" transform="matrix(9.5238095,0,0,9.5238095,-219,-358)">
	<path d="M 42,34.363 C 42,38.581 38.581,42 34.363,42 H 7.636 C 3.419,42 0,38.581 0,34.363 V 7.636 C 0,3.418 3.419,0 7.636,0 H 34.363 C 38.581,0 42,3.418 42,7.636 v 26.727 z" id="path5" style="fill:#000000" inkscape:connector-curvature="0"/>
	<path d="M 42,34.363 C 42,38.581 38.581,42 34.363,42 H 7.636 C 3.419,42 0,38.581 0,34.363 V 7.636 C 0,3.418 3.419,0 7.636,0 H 34.363 C 38.581,0 42,3.418 42,7.636 v 26.727 z" id="path7" style="fill:#000000" inkscape:connector-curvature="0"/>
	<linearGradient id="XMLID_3_" gradientUnits="userSpaceOnUse" x1="0.79589999" y1="20.9995" x2="41.205101" y2="20.9995">
		<stop offset="0" style="stop-color:#7DFF00" id="stop10"/>
		<stop offset="1" style="stop-color:#00A33D" id="stop12"/>
	</linearGradient>
	<path d="m 41.205,33.857 c 0,4.057 -3.291,7.347 -7.348,7.347 H 8.143 c -4.057,0 -7.347,-3.29 -7.347,-7.347 V 8.143 c 0,-4.058 3.29,-7.348 7.347,-7.348 h 25.715 c 4.057,0 7.348,3.29 7.348,7.348 v 25.714 z" id="path14" style="fill:#000000" inkscape:connector-curvature="0"/>
	<linearGradient id="XMLID_4_" gradientUnits="userSpaceOnUse" x1="0" y1="9.6493998" x2="42" y2="9.6493998">
		<stop offset="0" style="stop-color:#9DFE41" id="stop17"/>
		<stop offset="1" style="stop-color:#40BA6E" id="stop19"/>
	</linearGradient>
	<path d="M 42,13.643 V 7.636 C 42,3.418 38.581,0 34.363,0 H 7.636 C 3.419,0 0,3.418 0,7.636 v 5.957 c 10.423,5.752 25.102,9.243 42,0.05 z" id="path21" style="fill:#000000" inkscape:connector-curvature="0"/>
	
</g>
<metadata><rdf:RDF><cc:Work><dc:format>image/svg+xml</dc:format><dc:type rdf:resource="http://purl.org/dc/dcmitype/StillImage"/><cc:license rdf:resource="http://creativecommons.org/licenses/publicdomain/"/><dc:publisher><cc:Agent rdf:about="http://openclipart.org/"><dc:title>Open Clip Art Library</dc:title></cc:Agent></dc:publisher><dc:title>black</dc:title><dc:date>2010-10-04T00:19:56</dc:date><dc:description/><dc:source>http://openclipart.org/detail/88531/black-by-outisane</dc:source><dc:creator><cc:Agent><dc:title>outisane</dc:title></cc:Agent></dc:creator><dc:subject><rdf:Bag><rdf:li>clip art</rdf:li><rdf:li>clipart</rdf:li><rdf:li>color</rdf:li><rdf:li>colour</rdf:li></rdf:Bag></dc:subject></cc:Work><cc:License rdf:about="http://creativecommons.org/licenses/publicdomain/"><cc:permits rdf:resource="http://creativecommons.org/ns#Reproduction"/><cc:permits rdf:resource="http://creativecommons.org/ns#Distribution"/><cc:permits rdf:resource="http://creativecommons.org/ns#DerivativeWorks"/></cc:License></rdf:RDF></metadata></svg>
